# xmcd
# 
# Track frame offsets:
#     150
#     10365
#     19065
#     38003
#     53168
#     63961
#     90691
#     107004
#     122679
#     163367
#     182732
# 
# Disc length: 3150
# 
# Revision: 0
# Processed by: cddbd v1.5.2PL0 Copyright (c) Steve Scherf et al.
# Submitted via: fre:ac v1.0.27
# 
DISCID=8b0c4c0b
DTITLE=Marius Neset - Snowmelt
DYEAR=2016
DGENRE=Jazz
TTITLE0=Prologue
TTITLE1=Arches of Nature_ Sirens
TTITLE2=Arches of Nature_ Acrobatics
TTITLE3=Arches of Nature_ Circles
TTITLE4=Arches of Nature_ Caves
TTITLE5=Arches of Nature_ Paradise
TTITLE6=Arches of Nature_ Rainbows
TTITLE7=Arches of Nature_ Pyramiden
TTITLE8=The Storm is Over
TTITLE9=Introduction to Snowmelt
TTITLE10=Snowmelt
EXTD=
EXTT0=
EXTT1=
EXTT2=
EXTT3=
EXTT4=
EXTT5=
EXTT6=
EXTT7=
EXTT8=
EXTT9=
EXTT10=
PLAYORDER=
